<svg id="Layer_1" enable-background="new 0 0 64 64" viewBox="0 0 64 64" xmlns="http://www.w3.org/2000/svg"><path fill="currentColor" d="m32 12.7319336c-4.5927734 0-8.3291016 3.7368164-8.3291016 8.3295898s3.7363282 8.3291016 8.3291016 8.3291016 8.3291016-3.7363281 8.3291016-8.3291016-3.7363282-8.3295898-8.3291016-8.3295898zm0 14.6586914c-3.4902344 0-6.3291016-2.8393555-6.3291016-6.3291016 0-3.4902344 2.8388672-6.3295898 6.3291016-6.3295898s6.3291016 2.8393555 6.3291016 6.3295898c0 3.4897461-2.8388672 6.3291016-6.3291016 6.3291016z"/><path fill="currentColor" d="m32 2c-10.5107422 0-19.0615234 8.5507812-19.0615234 19.0615234 0 10.2993164 17.6376953 26.4501953 18.3886719 27.1323242.1914062.1733399.4316406.260254.6728515.260254s.4814453-.0869141.6728516-.2602539c.7509766-.6821289 18.3886719-16.8330078 18.3886719-27.1323242-.0000001-10.5107423-8.5507813-19.0615235-19.0615235-19.0615235zm0 44.0849609c-3.2402344-3.0712891-17.0615234-16.6665039-17.0615234-25.0234375 0-9.4077148 7.6533203-17.0615234 17.0615234-17.0615234s17.0615234 7.6538086 17.0615234 17.0615234c0 8.3569336-13.821289 21.9521485-17.0615234 25.0234375z"/><path fill="currentColor" d="m18.140625 57.7607422c0 3.3461914 8.7119141 4.2392578 13.859375 4.2392578s13.859375-.8930664 13.859375-4.2392578-8.7119141-4.2392578-13.859375-4.2392578-13.859375.8930664-13.859375 4.2392578zm25.7050781 0c-.446289.805664-4.7685547 2.2392578-11.8457031 2.2392578-7.2041016 0-11.5537109-1.4858398-11.8652344-2.1962891.3115235-.7963867 4.6611328-2.2822265 11.8652344-2.2822265 7.0771484 0 11.3994141 1.4335937 11.8457031 2.2392578z"/></svg>