<svg xmlns="http://www.w3.org/2000/svg" version="1.1" xmlns:xlink="http://www.w3.org/1999/xlink" x="0" y="0" viewBox="0 0 512 512" style="enable-background:new 0 0 512 512" xml:space="preserve"><g><path d="M232 359.6V264a8 8 0 0 0-8-8c-48.86 0-55.71 83.833-55.978 87.4a8 8 0 0 0 4.4 7.754l11.578 5.79v2.66l-6.2 62.008A24 24 0 0 0 201.68 448h12.64a24 24 0 0 0 23.88-26.388Zm-47.451-20.27a175.605 175.605 0 0 1 7.365-33.019c6.148-18.091 14.226-29.1 24.086-32.853V352h-16a8 8 0 0 0-4.422-7.155Zm35.7 90.038A7.91 7.91 0 0 1 214.32 432h-12.64a8 8 0 0 1-7.961-8.8l5.521-55.2h17.52l5.521 55.2a7.908 7.908 0 0 1-2.029 6.168Z" fill="currentColor" opacity="1" data-original="#000000"></path><path d="M488 8h-64a8 8 0 0 0-8 8v8H248.982a43.35 43.35 0 0 0-20.7 5.278L149.959 72H56c-13.458 0-24 14.056-24 32 0 16.748 9.185 30.1 21.351 31.811l-36.068 122.1a9.997 9.997 0 0 0-.09.328 40.073 40.073 0 0 0-1.193 9.7V496a8 8 0 0 0 8 8h360a8 8 0 0 0 8-8V268.608a39.933 39.933 0 0 0-1.626-11.287l-33.332-113.328A43.281 43.281 0 0 0 399.881 104H416v16a8 8 0 0 0 8 8h64a8 8 0 0 0 8-8V16a8 8 0 0 0-8-8ZM48 104c0-9.767 4.738-16 8-16h228.687l-32 32H56c-3.262 0-8-6.233-8-16Zm249.193 154.24a40.073 40.073 0 0 0-1.193 9.7V488H32V267.939a24.077 24.077 0 0 1 .679-5.668L69.978 136h168.235a35.245 35.245 0 0 0 51.9 45.826l38.487-29.937-31.317 106.023a9.997 9.997 0 0 0-.09.328ZM344 467.314 364.686 488h-41.372Zm31.025-205.475a23.947 23.947 0 0 1 .975 6.769v208.078l-24-24V280a8 8 0 0 0-16 0v172.687l-24 24V267.939a24.077 24.077 0 0 1 .679-5.668l31.3-105.976ZM416 88h-19.227A12.788 12.788 0 0 0 384 100.773 27.258 27.258 0 0 1 356.773 128h-19.666a11.282 11.282 0 0 0-6.892 2.365L280.288 169.2a19.226 19.226 0 0 1-25.4-28.771l54.768-54.769A8 8 0 0 0 304 72H183.374l52.571-28.676A27.3 27.3 0 0 1 248.982 40H416Zm64 24h-48V24h48Z" fill="currentColor" opacity="1" data-original="#000000"></path><path d="M160 264a8 8 0 0 0-16 0v24h-16v-24a8 8 0 0 0-16 0v24H96v-24a8 8 0 0 0-16 0v32h.015a7.974 7.974 0 0 0 .83 3.578l15.019 30.039-6.619 92.673A24 24 0 0 0 113.184 448h13.632a24 24 0 0 0 23.939-25.71l-6.619-92.673 15.019-30.039a7.974 7.974 0 0 0 .83-3.578H160Zm-20.944 40-8 16h-22.112l-8-16Zm-6.384 125.451a7.919 7.919 0 0 1-5.856 2.549h-13.632a8 8 0 0 1-7.98-8.569L111.449 336h17.1l6.245 87.431a7.919 7.919 0 0 1-2.122 6.02Z" fill="currentColor" opacity="1" data-original="#000000"></path></g></svg>