<svg id="Layer_1" height="512" viewBox="0 0 64 64" width="512" xmlns="http://www.w3.org/2000/svg"><g><g><path stroke="currentColor" d="m52.5 64h-48.1c-.6 0-1-.4-1-1v-26.5c0-.6.4-1 1-1s1 .4 1 1v25.5h46.1v-19.8c0-.6.4-1 1-1s1 .4 1 1v20.8c0 .6-.4 1-1 1z"/></g><g><path stroke="currentColor" d="m22.9 28.9h-10.9c-.3 0-.7-.2-.8-.5s-.2-.6-.1-1l5.6-12.3c.2-.4.5-.6.9-.6h7.2c.3 0 .6.1.8.3s.3.5.2.8l-1.9 12.3c-.1.6-.5 1-1 1zm-9.3-2h8.4l1.6-10.3h-5.4z"/></g><g><path stroke="currentColor" d="m38.5 28.9h-4.6c-.5 0-.9-.4-1-.9l-.5-3.5-1.4-8.7c0-.3 0-.6.2-.8s.5-.4.8-.4h1.9c.6 0 1 .4 1 1s-.4 1-1 1h-.7l1.6 10.3h3.7c.6 0 1 .4 1 1s-.4 1-1 1z"/></g><g><path d="m12 28.9h-11c-.4 0-.7-.2-.9-.6s-.1-.7.1-1l8.5-11.1c.6-1 1.8-1.6 3.2-1.6h5.7c.3 0 .7.2.8.5s.2.6.1 1l-5.6 12.3c-.2.3-.5.5-.9.5zm-9-2h8.3l4.7-10.3h-4.1c-.4 0-1.2.1-1.6.7z"/></g><g><path d="m33.9 28.9h-11c-.3 0-.6-.1-.8-.3s-.3-.5-.2-.8l1.9-12.3c.1-.5.5-.8 1-.8h7.2c.5 0 .9.4 1 .8l1.9 12.3c0 .3 0 .6-.2.8s-.5.3-.8.3zm-9.8-2h8.7l-1.6-10.3h-5.5z"/></g><g><path d="m17.5 37.8c-3.5 0-6.5-3-6.5-6.5v-3.4c0-.6.4-1 1-1h11c.6 0 1 .4 1 1v3.4c0 3.5-3 6.5-6.5 6.5zm-4.5-8.9v2.4c0 2.4 2.1 4.5 4.5 4.5s4.5-2.1 4.5-4.5v-2.4z"/></g><g><path d="m39.4 37.8c-3.5 0-6.5-3-6.5-6.5v-3.4c0-.6.4-1 1-1h4.6c.6 0 1 .4 1 1s-.4 1-1 1h-3.6v2.4c0 2.4 2.1 4.5 4.5 4.5.9 0 1.8-.3 2.6-.9.4-.3 1.1-.3 1.4.2.3.4.3 1.1-.2 1.4-1.1.8-2.4 1.3-3.8 1.3z"/></g><g><path d="m6.5 37.8c-3.5 0-6.5-3-6.5-6.5v-3.4c0-.6.4-1 1-1h11c.6 0 1 .4 1 1v3.4c0 3.5-3 6.5-6.5 6.5zm-4.5-8.9v2.4c0 2.4 2.1 4.5 4.5 4.5s4.5-2.1 4.5-4.5v-2.4z"/></g><g><path d="m28.4 37.8c-3.5 0-6.5-3-6.5-6.5v-3.4c0-.6.4-1 1-1h11c.6 0 1 .4 1 1v3.4c0 3.5-3 6.5-6.5 6.5zm-4.5-8.9v2.4c0 2.4 2.1 4.5 4.5 4.5s4.5-2.1 4.5-4.5v-2.4z"/></g><g><path d="m44.7 64h-14c-.6 0-1-.4-1-1v-17c0-1.9 1.4-3.3 3.3-3.3h9.3c1.9 0 3.4 1.5 3.4 3.3v17c0 .6-.4 1-1 1zm-13-2h12v-16c0-.6-.5-1.3-1.4-1.3h-9.3c-.8 0-1.3.5-1.3 1.3z"/></g><g><path d="m41.4 53.4h-7.4c-.6 0-1-.4-1-1v-4.7c0-.6.4-1 1-1h7.4c.6 0 1 .4 1 1v4.7c0 .6-.4 1-1 1zm-6.4-2h5.4v-2.7h-5.4z"/></g><g><path d="m55.4 64h-54c-.6 0-1-.4-1-1s.4-1 1-1h54c.6 0 1 .4 1 1s-.4 1-1 1z"/></g><g><path d="m50.3 39.5c-1.3 0-2.5-.7-3.1-1.8-4.8-8.3-10.5-19.2-10.5-24.1 0-7.5 6.1-13.6 13.6-13.6 7.4 0 13.7 6.2 13.7 13.6 0 4.9-5.7 15.8-10.5 24.1-.7 1.1-1.9 1.8-3.2 1.8zm0-37.5c-6.4 0-11.6 5.2-11.6 11.6 0 3.5 3.6 11.7 10.3 23.1.3.5.8.8 1.4.8s1.1-.3 1.4-.8c6.6-11.4 10.2-19.6 10.2-23.1 0-6.3-5.4-11.6-11.7-11.6z"/></g><g><path d="m50.4 22.4c-4.9 0-8.8-3.9-8.8-8.8s3.9-8.8 8.8-8.8 8.8 3.9 8.8 8.8-3.9 8.8-8.8 8.8zm0-15.6c-3.8 0-6.8 3.1-6.8 6.8s3.1 6.8 6.8 6.8 6.8-3.1 6.8-6.8-3.1-6.8-6.8-6.8z"/></g><g><path d="m22.8 56.6h-10.8c-1.7 0-3-1.3-3-3v-7.4c0-1.7 1.3-3 3-3h10.8c1.7 0 3 1.3 3 3v7.4c0 1.7-1.3 3-3 3zm-10.8-11.4c-.6 0-1 .4-1 1v7.4c0 .6.4 1 1 1h10.8c.6 0 1-.4 1-1v-7.4c0-.6-.4-1-1-1z"/></g><g><path d="m33.9 58.8c-.6 0-1-.4-1-1v-1.3c0-.6.4-1 1-1s1 .4 1 1v1.3c0 .6-.4 1-1 1z"/></g></g></svg>